<svg xmlns="http://www.w3.org/2000/svg" xmlns:xlink="http://www.w3.org/1999/xlink" width="113" zoomAndPan="magnify" viewBox="0 0 84.75 36.000001" height="48" preserveAspectRatio="xMidYMid meet" version="1.0"><defs><g/><clipPath id="d9a4dd3ce4"><path d="M 1.023438 0 L 83.484375 0 L 83.484375 35.027344 L 1.023438 35.027344 Z M 1.023438 0 " clip-rule="nonzero"/></clipPath><clipPath id="47811f661f"><path d="M 2.816406 3.503906 L 31 3.503906 L 31 31.753906 L 2.816406 31.753906 Z M 2.816406 3.503906 " clip-rule="nonzero"/></clipPath><clipPath id="90f85b07d5"><path d="M 30.824219 17.507812 C 30.824219 18.425781 30.734375 19.335938 30.554688 20.238281 C 30.378906 21.140625 30.113281 22.015625 29.757812 22.867188 C 29.40625 23.714844 28.976562 24.523438 28.464844 25.289062 C 27.953125 26.054688 27.375 26.761719 26.722656 27.410156 C 26.074219 28.0625 25.367188 28.640625 24.601562 29.152344 C 23.835938 29.664062 23.03125 30.09375 22.179688 30.445312 C 21.332031 30.796875 20.453125 31.0625 19.554688 31.242188 C 18.652344 31.421875 17.742188 31.511719 16.820312 31.511719 C 15.902344 31.511719 14.992188 31.421875 14.089844 31.242188 C 13.1875 31.0625 12.3125 30.796875 11.460938 30.445312 C 10.613281 30.09375 9.804688 29.664062 9.039062 29.152344 C 8.277344 28.640625 7.566406 28.0625 6.917969 27.410156 C 6.269531 26.761719 5.6875 26.054688 5.175781 25.289062 C 4.664062 24.523438 4.234375 23.714844 3.882812 22.867188 C 3.53125 22.015625 3.265625 21.140625 3.085938 20.238281 C 2.90625 19.335938 2.816406 18.425781 2.816406 17.507812 C 2.816406 16.589844 2.90625 15.675781 3.085938 14.773438 C 3.265625 13.875 3.53125 12.996094 3.882812 12.148438 C 4.234375 11.296875 4.664062 10.492188 5.175781 9.726562 C 5.6875 8.960938 6.269531 8.253906 6.917969 7.605469 C 7.566406 6.953125 8.277344 6.375 9.039062 5.863281 C 9.804688 5.351562 10.613281 4.921875 11.460938 4.570312 C 12.3125 4.21875 13.1875 3.953125 14.089844 3.773438 C 14.992188 3.59375 15.902344 3.503906 16.820312 3.503906 C 17.742188 3.503906 18.652344 3.59375 19.554688 3.773438 C 20.453125 3.953125 21.332031 4.21875 22.179688 4.570312 C 23.03125 4.921875 23.835938 5.351562 24.601562 5.863281 C 25.367188 6.375 26.074219 6.953125 26.722656 7.605469 C 27.375 8.253906 27.953125 8.960938 28.464844 9.726562 C 28.976562 10.492188 29.40625 11.296875 29.757812 12.148438 C 30.113281 12.996094 30.378906 13.875 30.554688 14.773438 C 30.734375 15.675781 30.824219 16.589844 30.824219 17.507812 Z M 30.824219 17.507812 " clip-rule="nonzero"/></clipPath><linearGradient x1="245.382097" gradientTransform="matrix(0.0970284, 0.0560194, 0.0560194, -0.0970284, -20.385602, 28.259717)" y1="425.284499" x2="233.899228" gradientUnits="userSpaceOnUse" y2="73.020271" id="aed66b053d"><stop stop-opacity="1" stop-color="rgb(100%, 74.099731%, 34.899902%)" offset="0"/><stop stop-opacity="1" stop-color="rgb(100%, 74.099731%, 34.899902%)" offset="0.0315683"/><stop stop-opacity="1" stop-color="rgb(100%, 74.099731%, 34.899902%)" offset="0.125"/><stop stop-opacity="1" stop-color="rgb(100%, 73.94104%, 34.855652%)" offset="0.15625"/><stop stop-opacity="1" stop-color="rgb(100%, 73.670959%, 34.78241%)" offset="0.164062"/><stop stop-opacity="1" stop-color="rgb(100%, 73.443604%, 34.719849%)" offset="0.171875"/><stop stop-opacity="1" stop-color="rgb(100%, 73.217773%, 34.657288%)" offset="0.179688"/><stop stop-opacity="1" stop-color="rgb(100%, 72.991943%, 34.596252%)" offset="0.1875"/><stop stop-opacity="1" stop-color="rgb(100%, 72.764587%, 34.533691%)" offset="0.195312"/><stop stop-opacity="1" stop-color="rgb(100%, 72.538757%, 34.472656%)" offset="0.203125"/><stop stop-opacity="1" stop-color="rgb(100%, 72.312927%, 34.410095%)" offset="0.210937"/><stop stop-opacity="1" stop-color="rgb(100%, 72.087097%, 34.34906%)" offset="0.21875"/><stop stop-opacity="1" stop-color="rgb(100%, 71.859741%, 34.286499%)" offset="0.226562"/><stop stop-opacity="1" stop-color="rgb(100%, 71.633911%, 34.225464%)" offset="0.234375"/><stop stop-opacity="1" stop-color="rgb(100%, 71.408081%, 34.162903%)" offset="0.242188"/><stop stop-opacity="1" stop-color="rgb(100%, 71.180725%, 34.101868%)" offset="0.25"/><stop stop-opacity="1" stop-color="rgb(100%, 70.954895%, 34.039307%)" offset="0.257812"/><stop stop-opacity="1" stop-color="rgb(100%, 70.729065%, 33.978271%)" offset="0.265625"/><stop stop-opacity="1" stop-color="rgb(100%, 70.501709%, 33.91571%)" offset="0.273438"/><stop stop-opacity="1" stop-color="rgb(100%, 70.275879%, 33.854675%)" offset="0.28125"/><stop stop-opacity="1" stop-color="rgb(100%, 70.050049%, 33.792114%)" offset="0.289062"/><stop stop-opacity="1" stop-color="rgb(100%, 69.824219%, 33.731079%)" offset="0.296875"/><stop stop-opacity="1" stop-color="rgb(100%, 69.596863%, 33.668518%)" offset="0.304688"/><stop stop-opacity="1" stop-color="rgb(100%, 69.371033%, 33.607483%)" offset="0.3125"/><stop stop-opacity="1" stop-color="rgb(100%, 69.145203%, 33.544922%)" offset="0.320312"/><stop stop-opacity="1" stop-color="rgb(100%, 68.917847%, 33.483887%)" offset="0.328125"/><stop stop-opacity="1" stop-color="rgb(100%, 68.692017%, 33.421326%)" offset="0.335937"/><stop stop-opacity="1" stop-color="rgb(100%, 68.466187%, 33.360291%)" offset="0.34375"/><stop stop-opacity="1" stop-color="rgb(100%, 68.238831%, 33.297729%)" offset="0.351562"/><stop stop-opacity="1" stop-color="rgb(100%, 68.013%, 33.235168%)" offset="0.359375"/><stop stop-opacity="1" stop-color="rgb(100%, 67.78717%, 33.174133%)" offset="0.367187"/><stop stop-opacity="1" stop-color="rgb(100%, 67.56134%, 33.111572%)" offset="0.375"/><stop stop-opacity="1" stop-color="rgb(100%, 67.333984%, 33.050537%)" offset="0.382812"/><stop stop-opacity="1" stop-color="rgb(100%, 67.108154%, 32.987976%)" offset="0.390625"/><stop stop-opacity="1" stop-color="rgb(100%, 66.882324%, 32.926941%)" offset="0.398438"/><stop stop-opacity="1" stop-color="rgb(100%, 66.654968%, 32.86438%)" offset="0.40625"/><stop stop-opacity="1" stop-color="rgb(100%, 66.429138%, 32.803345%)" offset="0.414062"/><stop stop-opacity="1" stop-color="rgb(100%, 66.203308%, 32.740784%)" offset="0.421875"/><stop stop-opacity="1" stop-color="rgb(100%, 65.977478%, 32.679749%)" offset="0.429687"/><stop stop-opacity="1" stop-color="rgb(100%, 65.750122%, 32.617188%)" offset="0.4375"/><stop stop-opacity="1" stop-color="rgb(100%, 65.524292%, 32.556152%)" offset="0.445312"/><stop stop-opacity="1" stop-color="rgb(100%, 65.298462%, 32.493591%)" offset="0.453125"/><stop stop-opacity="1" stop-color="rgb(100%, 65.071106%, 32.432556%)" offset="0.460937"/><stop stop-opacity="1" stop-color="rgb(100%, 64.845276%, 32.369995%)" offset="0.46875"/><stop stop-opacity="1" stop-color="rgb(100%, 64.619446%, 32.30896%)" offset="0.476563"/><stop stop-opacity="1" stop-color="rgb(100%, 64.39209%, 32.246399%)" offset="0.484375"/><stop stop-opacity="1" stop-color="rgb(100%, 64.16626%, 32.185364%)" offset="0.492188"/><stop stop-opacity="1" stop-color="rgb(100%, 63.94043%, 32.122803%)" offset="0.5"/><stop stop-opacity="1" stop-color="rgb(100%, 63.7146%, 32.061768%)" offset="0.507812"/><stop stop-opacity="1" stop-color="rgb(100%, 63.487244%, 31.999207%)" offset="0.515625"/><stop stop-opacity="1" stop-color="rgb(100%, 63.261414%, 31.936646%)" offset="0.523437"/><stop stop-opacity="1" stop-color="rgb(100%, 63.035583%, 31.87561%)" offset="0.53125"/><stop stop-opacity="1" stop-color="rgb(100%, 62.808228%, 31.813049%)" offset="0.539062"/><stop stop-opacity="1" stop-color="rgb(100%, 62.582397%, 31.752014%)" offset="0.546875"/><stop stop-opacity="1" stop-color="rgb(100%, 62.356567%, 31.689453%)" offset="0.554688"/><stop stop-opacity="1" stop-color="rgb(100%, 62.130737%, 31.628418%)" offset="0.5625"/><stop stop-opacity="1" stop-color="rgb(100%, 61.903381%, 31.565857%)" offset="0.570312"/><stop stop-opacity="1" stop-color="rgb(100%, 61.677551%, 31.504822%)" offset="0.578125"/><stop stop-opacity="1" stop-color="rgb(100%, 61.451721%, 31.442261%)" offset="0.585938"/><stop stop-opacity="1" stop-color="rgb(100%, 61.224365%, 31.381226%)" offset="0.59375"/><stop stop-opacity="1" stop-color="rgb(100%, 60.998535%, 31.318665%)" offset="0.601562"/><stop stop-opacity="1" stop-color="rgb(100%, 60.772705%, 31.257629%)" offset="0.609375"/><stop stop-opacity="1" stop-color="rgb(100%, 60.545349%, 31.195068%)" offset="0.617188"/><stop stop-opacity="1" stop-color="rgb(100%, 60.319519%, 31.134033%)" offset="0.625"/><stop stop-opacity="1" stop-color="rgb(100%, 60.093689%, 31.071472%)" offset="0.632812"/><stop stop-opacity="1" stop-color="rgb(100%, 59.867859%, 31.010437%)" offset="0.640625"/><stop stop-opacity="1" stop-color="rgb(100%, 59.640503%, 30.947876%)" offset="0.648438"/><stop stop-opacity="1" stop-color="rgb(100%, 59.414673%, 30.886841%)" offset="0.65625"/><stop stop-opacity="1" stop-color="rgb(100%, 59.188843%, 30.82428%)" offset="0.664062"/><stop stop-opacity="1" stop-color="rgb(100%, 58.961487%, 30.763245%)" offset="0.671875"/><stop stop-opacity="1" stop-color="rgb(100%, 58.735657%, 30.700684%)" offset="0.679688"/><stop stop-opacity="1" stop-color="rgb(100%, 58.509827%, 30.639648%)" offset="0.6875"/><stop stop-opacity="1" stop-color="rgb(100%, 58.282471%, 30.577087%)" offset="0.695312"/><stop stop-opacity="1" stop-color="rgb(100%, 58.056641%, 30.514526%)" offset="0.703125"/><stop stop-opacity="1" stop-color="rgb(100%, 57.830811%, 30.453491%)" offset="0.710938"/><stop stop-opacity="1" stop-color="rgb(100%, 57.60498%, 30.39093%)" offset="0.71875"/><stop stop-opacity="1" stop-color="rgb(100%, 57.377625%, 30.329895%)" offset="0.726563"/><stop stop-opacity="1" stop-color="rgb(100%, 57.151794%, 30.267334%)" offset="0.734375"/><stop stop-opacity="1" stop-color="rgb(100%, 56.968689%, 30.21698%)" offset="0.75"/><stop stop-opacity="1" stop-color="rgb(100%, 56.898499%, 30.198669%)" offset="0.968432"/><stop stop-opacity="1" stop-color="rgb(100%, 56.898499%, 30.198669%)" offset="1"/></linearGradient><clipPath id="633e7c5153"><path d="M 4.382812 5.070312 L 29.269531 5.070312 L 29.269531 29.957031 L 4.382812 29.957031 Z M 4.382812 5.070312 " clip-rule="nonzero"/></clipPath><clipPath id="e4c1cf5619"><path d="M 16.828125 5.070312 C 9.953125 5.070312 4.382812 10.640625 4.382812 17.511719 C 4.382812 24.386719 9.953125 29.957031 16.828125 29.957031 C 23.699219 29.957031 29.269531 24.386719 29.269531 17.511719 C 29.269531 10.640625 23.699219 5.070312 16.828125 5.070312 Z M 16.828125 5.070312 " clip-rule="nonzero"/></clipPath><clipPath id="45cfdf4fe7"><path d="M 10.695312 8.496094 L 22.53125 8.496094 L 22.53125 26.523438 L 10.695312 26.523438 Z M 10.695312 8.496094 " clip-rule="nonzero"/></clipPath></defs><g clip-path="url(#d9a4dd3ce4)"><path fill="#ffffff" d="M 1.023438 0 L 83.484375 0 L 83.484375 35.027344 L 1.023438 35.027344 Z M 1.023438 0 " fill-opacity="1" fill-rule="nonzero"/><path fill="#ffffff" d="M 1.023438 0 L 83.484375 0 L 83.484375 35.027344 L 1.023438 35.027344 Z M 1.023438 0 " fill-opacity="1" fill-rule="nonzero"/></g><g fill="#545454" fill-opacity="1"><g transform="translate(32.901017, 23.351353)"><g><path d="M 10.4375 -7.6875 C 11.070312 -7.351562 11.566406 -6.882812 11.921875 -6.28125 C 12.273438 -5.675781 12.453125 -4.984375 12.453125 -4.203125 C 12.453125 -3.429688 12.242188 -2.722656 11.828125 -2.078125 C 11.421875 -1.441406 10.867188 -0.9375 10.171875 -0.5625 C 9.472656 -0.1875 8.707031 0 7.875 0 L 1.671875 0 L 1.671875 -14.578125 L 7.703125 -14.578125 C 8.535156 -14.578125 9.28125 -14.410156 9.9375 -14.078125 C 10.601562 -13.753906 11.125 -13.304688 11.5 -12.734375 C 11.882812 -12.171875 12.078125 -11.535156 12.078125 -10.828125 C 12.078125 -10.203125 11.929688 -9.613281 11.640625 -9.0625 C 11.347656 -8.507812 10.945312 -8.050781 10.4375 -7.6875 Z M 9.015625 -10.328125 C 9.015625 -10.785156 8.867188 -11.160156 8.578125 -11.453125 C 8.285156 -11.742188 7.890625 -11.890625 7.390625 -11.890625 L 4.765625 -11.890625 L 4.765625 -8.796875 L 7.390625 -8.796875 C 7.890625 -8.796875 8.285156 -8.941406 8.578125 -9.234375 C 8.867188 -9.523438 9.015625 -9.890625 9.015625 -10.328125 Z M 7.5625 -2.890625 C 8.09375 -2.890625 8.515625 -3.039062 8.828125 -3.34375 C 9.140625 -3.65625 9.296875 -4.054688 9.296875 -4.546875 C 9.296875 -5.015625 9.140625 -5.398438 8.828125 -5.703125 C 8.515625 -6.015625 8.09375 -6.171875 7.5625 -6.171875 L 4.765625 -6.171875 L 4.765625 -2.890625 Z M 7.5625 -2.890625 "/></g></g></g><g fill="#545454" fill-opacity="1"><g transform="translate(45.795563, 23.351353)"><g><path d="M 9.234375 -11.25 L 12.46875 -11.25 L 7.5625 -0.140625 C 7.113281 0.867188 6.660156 1.679688 6.203125 2.296875 C 5.742188 2.921875 5.222656 3.367188 4.640625 3.640625 C 4.054688 3.921875 3.34375 4.0625 2.5 4.0625 L 1.25 4.0625 L 1.25 1.3125 L 2.3125 1.3125 C 2.800781 1.3125 3.1875 1.253906 3.46875 1.140625 C 3.75 1.035156 3.988281 0.832031 4.1875 0.53125 C 4.394531 0.226562 4.617188 -0.203125 4.859375 -0.765625 L 4.890625 -0.859375 L 0.125 -11.25 L 3.4375 -11.25 L 6.4375 -4.328125 Z M 9.234375 -11.25 "/></g></g></g><g fill="#545454" fill-opacity="1"><g transform="translate(57.856847, 23.351353)"><g><path d="M 4.828125 -2.9375 L 10.40625 -2.9375 L 10.40625 0 L 1.671875 0 L 1.671875 -14.578125 L 4.828125 -14.578125 Z M 4.828125 -2.9375 "/></g></g></g><g fill="#545454" fill-opacity="1"><g transform="translate(68.25161, 23.351353)"><g><path d="M 10.640625 -11.265625 L 12.90625 -11.265625 L 12.90625 -0.015625 L 10.515625 -0.015625 L 10.265625 -1.015625 C 9.785156 -0.597656 9.234375 -0.269531 8.609375 -0.03125 C 7.992188 0.195312 7.332031 0.3125 6.625 0.3125 C 5.5 0.3125 4.488281 0.0507812 3.59375 -0.46875 C 2.707031 -0.988281 2.007812 -1.695312 1.5 -2.59375 C 0.988281 -3.488281 0.734375 -4.503906 0.734375 -5.640625 C 0.734375 -6.765625 0.988281 -7.773438 1.5 -8.671875 C 2.007812 -9.566406 2.707031 -10.269531 3.59375 -10.78125 C 4.488281 -11.300781 5.5 -11.5625 6.625 -11.5625 C 7.34375 -11.5625 8.015625 -11.4375 8.640625 -11.1875 C 9.265625 -10.945312 9.820312 -10.613281 10.3125 -10.1875 Z M 6.875 -2.5625 C 7.457031 -2.5625 7.976562 -2.691406 8.4375 -2.953125 C 8.90625 -3.222656 9.269531 -3.585938 9.53125 -4.046875 C 9.800781 -4.515625 9.9375 -5.046875 9.9375 -5.640625 C 9.9375 -6.222656 9.800781 -6.75 9.53125 -7.21875 C 9.269531 -7.6875 8.90625 -8.054688 8.4375 -8.328125 C 7.976562 -8.597656 7.457031 -8.734375 6.875 -8.734375 C 6.28125 -8.734375 5.753906 -8.597656 5.296875 -8.328125 C 4.835938 -8.054688 4.472656 -7.6875 4.203125 -7.21875 C 3.941406 -6.75 3.8125 -6.222656 3.8125 -5.640625 C 3.8125 -5.046875 3.941406 -4.519531 4.203125 -4.0625 C 4.472656 -3.601562 4.835938 -3.238281 5.296875 -2.96875 C 5.753906 -2.695312 6.28125 -2.5625 6.875 -2.5625 Z M 6.875 -2.5625 "/></g></g></g><g clip-path="url(#47811f661f)"><g clip-path="url(#90f85b07d5)"><path fill="url(#aed66b053d)" d="M -9.3125 24.511719 L 9.816406 -8.625 L 42.953125 10.503906 L 23.824219 43.640625 Z M -9.3125 24.511719 " fill-rule="nonzero"/></g></g><g clip-path="url(#633e7c5153)"><g clip-path="url(#e4c1cf5619)"><path fill="#ffffff" d="M 4.382812 5.070312 L 29.269531 5.070312 L 29.269531 29.957031 L 4.382812 29.957031 Z M 4.382812 5.070312 " fill-opacity="1" fill-rule="nonzero"/></g></g><g clip-path="url(#45cfdf4fe7)"><path fill="#ff914d" d="M 18.570312 14.90625 C 17.960938 14.734375 17.355469 15.191406 17.355469 15.828125 L 17.355469 25.574219 C 17.355469 26.117188 17.859375 26.523438 18.390625 26.398438 C 21.003906 25.785156 22.953125 23.433594 22.953125 20.632812 C 22.953125 17.925781 21.125 15.636719 18.570312 14.90625 Z M 16.285156 14.390625 L 16.285156 25.574219 C 16.285156 26.117188 15.78125 26.523438 15.25 26.398438 C 12.636719 25.785156 10.6875 23.433594 10.6875 20.632812 L 10.6875 9.246094 C 10.6875 8.816406 11.078125 8.496094 11.496094 8.578125 C 14.222656 9.105469 16.285156 11.511719 16.285156 14.390625 Z M 16.285156 14.390625 " fill-opacity="1" fill-rule="nonzero"/></g></svg>