<svg xmlns="http://www.w3.org/2000/svg" xmlns:xlink="http://www.w3.org/1999/xlink" width="500" zoomAndPan="magnify" viewBox="0 0 375 374.999991" height="500" preserveAspectRatio="xMidYMid meet" version="1.0"><defs><clipPath id="904ec5f3d3"><path d="M 11.089844 10.132812 L 363.988281 10.132812 L 363.988281 363 L 11.089844 363 Z M 11.089844 10.132812 " clip-rule="nonzero"/></clipPath><clipPath id="489663450b"><path d="M 363.757812 186.46875 C 363.757812 189.355469 363.6875 192.238281 363.546875 195.121094 C 363.40625 198.003906 363.191406 200.878906 362.910156 203.75 C 362.625 206.625 362.273438 209.488281 361.851562 212.339844 C 361.425781 215.195312 360.933594 218.039062 360.371094 220.871094 C 359.808594 223.699219 359.175781 226.515625 358.472656 229.3125 C 357.773438 232.113281 357.003906 234.894531 356.164062 237.65625 C 355.328125 240.417969 354.421875 243.15625 353.449219 245.875 C 352.480469 248.589844 351.441406 251.28125 350.335938 253.949219 C 349.230469 256.613281 348.0625 259.25 346.828125 261.859375 C 345.59375 264.46875 344.296875 267.046875 342.9375 269.589844 C 341.578125 272.136719 340.15625 274.648438 338.671875 277.121094 C 337.1875 279.597656 335.644531 282.035156 334.042969 284.433594 C 332.4375 286.832031 330.777344 289.191406 329.058594 291.511719 C 327.339844 293.828125 325.5625 296.101562 323.734375 298.332031 C 321.902344 300.5625 320.019531 302.75 318.078125 304.886719 C 316.140625 307.023438 314.152344 309.113281 312.113281 311.15625 C 310.070312 313.195312 307.980469 315.183594 305.84375 317.121094 C 303.707031 319.0625 301.519531 320.945312 299.289062 322.777344 C 297.058594 324.605469 294.785156 326.382812 292.464844 328.101562 C 290.148438 329.820312 287.789062 331.480469 285.390625 333.085938 C 282.992188 334.6875 280.554688 336.230469 278.078125 337.714844 C 275.601562 339.199219 273.09375 340.621094 270.546875 341.980469 C 268.003906 343.339844 265.425781 344.636719 262.816406 345.871094 C 260.207031 347.105469 257.570312 348.273438 254.90625 349.378906 C 252.238281 350.484375 249.546875 351.523438 246.828125 352.496094 C 244.113281 353.464844 241.375 354.371094 238.613281 355.210938 C 235.851562 356.046875 233.070312 356.816406 230.269531 357.519531 C 227.472656 358.21875 224.65625 358.851562 221.824219 359.414062 C 218.996094 359.976562 216.152344 360.46875 213.296875 360.894531 C 210.445312 361.316406 207.582031 361.671875 204.707031 361.953125 C 201.835938 362.234375 198.960938 362.449219 196.078125 362.589844 C 193.195312 362.730469 190.3125 362.800781 187.425781 362.800781 C 184.539062 362.800781 181.65625 362.730469 178.773438 362.589844 C 175.890625 362.449219 173.011719 362.234375 170.140625 361.953125 C 167.269531 361.671875 164.40625 361.316406 161.550781 360.894531 C 158.695312 360.46875 155.855469 359.976562 153.023438 359.414062 C 150.191406 358.851562 147.378906 358.21875 144.578125 357.515625 C 141.78125 356.816406 139 356.046875 136.238281 355.210938 C 133.476562 354.371094 130.738281 353.464844 128.019531 352.496094 C 125.300781 351.523438 122.609375 350.484375 119.945312 349.378906 C 117.277344 348.273438 114.640625 347.105469 112.03125 345.871094 C 109.421875 344.636719 106.847656 343.339844 104.300781 341.980469 C 101.757812 340.621094 99.246094 339.199219 96.769531 337.714844 C 94.296875 336.230469 91.859375 334.6875 89.457031 333.085938 C 87.058594 331.480469 84.699219 329.820312 82.382812 328.101562 C 80.066406 326.382812 77.789062 324.605469 75.558594 322.777344 C 73.328125 320.945312 71.144531 319.0625 69.007812 317.121094 C 66.867188 315.183594 64.777344 313.195312 62.738281 311.15625 C 60.695312 309.113281 58.707031 307.023438 56.769531 304.886719 C 54.832031 302.75 52.949219 300.5625 51.117188 298.332031 C 49.285156 296.101562 47.511719 293.828125 45.792969 291.511719 C 44.074219 289.191406 42.410156 286.832031 40.808594 284.433594 C 39.203125 282.035156 37.660156 279.597656 36.179688 277.121094 C 34.695312 274.648438 33.273438 272.136719 31.910156 269.589844 C 30.550781 267.046875 29.253906 264.46875 28.019531 261.859375 C 26.785156 259.25 25.617188 256.613281 24.511719 253.949219 C 23.410156 251.28125 22.371094 248.589844 21.398438 245.875 C 20.425781 243.15625 19.519531 240.417969 18.683594 237.65625 C 17.847656 234.894531 17.078125 232.113281 16.375 229.3125 C 15.675781 226.515625 15.042969 223.699219 14.480469 220.871094 C 13.914062 218.039062 13.421875 215.195312 13 212.339844 C 12.574219 209.488281 12.222656 206.625 11.941406 203.75 C 11.65625 200.878906 11.445312 198.003906 11.304688 195.121094 C 11.160156 192.238281 11.089844 189.355469 11.089844 186.46875 C 11.089844 183.582031 11.160156 180.699219 11.304688 177.816406 C 11.445312 174.933594 11.65625 172.054688 11.941406 169.183594 C 12.222656 166.3125 12.574219 163.449219 13 160.59375 C 13.421875 157.738281 13.914062 154.898438 14.480469 152.066406 C 15.042969 149.238281 15.675781 146.421875 16.375 143.621094 C 17.078125 140.824219 17.847656 138.042969 18.683594 135.28125 C 19.519531 132.519531 20.425781 129.78125 21.398438 127.0625 C 22.371094 124.347656 23.410156 121.652344 24.511719 118.988281 C 25.617188 116.320312 26.785156 113.683594 28.019531 111.074219 C 29.253906 108.464844 30.550781 105.890625 31.910156 103.34375 C 33.273438 100.800781 34.695312 98.289062 36.179688 95.8125 C 37.660156 93.339844 39.203125 90.902344 40.808594 88.503906 C 42.410156 86.101562 44.074219 83.742188 45.792969 81.425781 C 47.511719 79.109375 49.285156 76.832031 51.117188 74.601562 C 52.949219 72.371094 54.832031 70.1875 56.769531 68.050781 C 58.707031 65.910156 60.695312 63.820312 62.738281 61.78125 C 64.777344 59.742188 66.867188 57.75 69.007812 55.8125 C 71.144531 53.875 73.328125 51.992188 75.558594 50.160156 C 77.789062 48.328125 80.066406 46.554688 82.382812 44.835938 C 84.699219 43.117188 87.058594 41.453125 89.457031 39.851562 C 91.859375 38.25 94.296875 36.703125 96.769531 35.222656 C 99.246094 33.738281 101.757812 32.316406 104.300781 30.957031 C 106.847656 29.59375 109.421875 28.296875 112.03125 27.0625 C 114.640625 25.832031 117.277344 24.660156 119.945312 23.558594 C 122.609375 22.453125 125.300781 21.414062 128.019531 20.441406 C 130.738281 19.46875 133.476562 18.566406 136.238281 17.726562 C 139 16.890625 141.78125 16.121094 144.578125 15.417969 C 147.378906 14.71875 150.191406 14.085938 153.023438 13.523438 C 155.855469 12.960938 158.695312 12.464844 161.550781 12.042969 C 164.40625 11.621094 167.269531 11.265625 170.140625 10.984375 C 173.011719 10.699219 175.890625 10.488281 178.773438 10.347656 C 181.65625 10.203125 184.539062 10.132812 187.425781 10.132812 C 190.3125 10.132812 193.195312 10.203125 196.078125 10.347656 C 198.960938 10.488281 201.835938 10.699219 204.707031 10.984375 C 207.582031 11.265625 210.445312 11.621094 213.296875 12.042969 C 216.152344 12.464844 218.996094 12.960938 221.824219 13.523438 C 224.65625 14.085938 227.472656 14.71875 230.269531 15.417969 C 233.070312 16.121094 235.851562 16.890625 238.613281 17.726562 C 241.375 18.566406 244.113281 19.46875 246.828125 20.441406 C 249.546875 21.414062 252.238281 22.453125 254.90625 23.558594 C 257.570312 24.660156 260.207031 25.832031 262.816406 27.0625 C 265.425781 28.296875 268.003906 29.59375 270.546875 30.957031 C 273.09375 32.316406 275.601562 33.738281 278.078125 35.222656 C 280.554688 36.703125 282.992188 38.25 285.390625 39.851562 C 287.789062 41.453125 290.148438 43.117188 292.464844 44.835938 C 294.785156 46.554688 297.058594 48.328125 299.289062 50.160156 C 301.519531 51.992188 303.707031 53.875 305.84375 55.8125 C 307.980469 57.75 310.070312 59.742188 312.113281 61.78125 C 314.152344 63.820312 316.140625 65.910156 318.078125 68.050781 C 320.019531 70.1875 321.902344 72.371094 323.734375 74.601562 C 325.5625 76.832031 327.339844 79.109375 329.058594 81.425781 C 330.777344 83.742188 332.4375 86.101562 334.042969 88.503906 C 335.644531 90.902344 337.1875 93.339844 338.671875 95.8125 C 340.15625 98.289062 341.578125 100.800781 342.9375 103.34375 C 344.296875 105.890625 345.59375 108.464844 346.828125 111.074219 C 348.0625 113.683594 349.230469 116.320312 350.335938 118.988281 C 351.441406 121.652344 352.480469 124.347656 353.449219 127.0625 C 354.421875 129.78125 355.328125 132.519531 356.164062 135.28125 C 357.003906 138.042969 357.773438 140.824219 358.472656 143.621094 C 359.175781 146.421875 359.808594 149.238281 360.371094 152.066406 C 360.933594 154.898438 361.425781 157.738281 361.851562 160.59375 C 362.273438 163.449219 362.625 166.3125 362.910156 169.183594 C 363.191406 172.054688 363.40625 174.933594 363.546875 177.816406 C 363.6875 180.699219 363.757812 183.582031 363.757812 186.46875 Z M 363.757812 186.46875 " clip-rule="nonzero"/></clipPath><linearGradient x1="245.382098" gradientTransform="matrix(1.221678, 0.705336, 0.705336, -1.221678, -281.037919, 321.848108)" y1="425.284519" x2="233.899229" gradientUnits="userSpaceOnUse" y2="73.020291" id="6a74a0cad7"><stop stop-opacity="1" stop-color="rgb(100%, 74.099731%, 34.899902%)" offset="0"/><stop stop-opacity="1" stop-color="rgb(100%, 74.099731%, 34.899902%)" offset="0.0315683"/><stop stop-opacity="1" stop-color="rgb(100%, 74.099731%, 34.899902%)" offset="0.125"/><stop stop-opacity="1" stop-color="rgb(100%, 73.94104%, 34.855652%)" offset="0.15625"/><stop stop-opacity="1" stop-color="rgb(100%, 73.670959%, 34.78241%)" offset="0.164062"/><stop stop-opacity="1" stop-color="rgb(100%, 73.443604%, 34.719849%)" offset="0.171875"/><stop stop-opacity="1" stop-color="rgb(100%, 73.217773%, 34.657288%)" offset="0.179688"/><stop stop-opacity="1" stop-color="rgb(100%, 72.991943%, 34.596252%)" offset="0.1875"/><stop stop-opacity="1" stop-color="rgb(100%, 72.764587%, 34.533691%)" offset="0.195312"/><stop stop-opacity="1" stop-color="rgb(100%, 72.538757%, 34.472656%)" offset="0.203125"/><stop stop-opacity="1" stop-color="rgb(100%, 72.312927%, 34.410095%)" offset="0.210938"/><stop stop-opacity="1" stop-color="rgb(100%, 72.087097%, 34.34906%)" offset="0.21875"/><stop stop-opacity="1" stop-color="rgb(100%, 71.859741%, 34.286499%)" offset="0.226562"/><stop stop-opacity="1" stop-color="rgb(100%, 71.633911%, 34.225464%)" offset="0.234375"/><stop stop-opacity="1" stop-color="rgb(100%, 71.408081%, 34.162903%)" offset="0.242188"/><stop stop-opacity="1" stop-color="rgb(100%, 71.180725%, 34.101868%)" offset="0.25"/><stop stop-opacity="1" stop-color="rgb(100%, 70.954895%, 34.039307%)" offset="0.257812"/><stop stop-opacity="1" stop-color="rgb(100%, 70.729065%, 33.978271%)" offset="0.265625"/><stop stop-opacity="1" stop-color="rgb(100%, 70.501709%, 33.91571%)" offset="0.273437"/><stop stop-opacity="1" stop-color="rgb(100%, 70.275879%, 33.854675%)" offset="0.28125"/><stop stop-opacity="1" stop-color="rgb(100%, 70.050049%, 33.792114%)" offset="0.289062"/><stop stop-opacity="1" stop-color="rgb(100%, 69.824219%, 33.731079%)" offset="0.296875"/><stop stop-opacity="1" stop-color="rgb(100%, 69.596863%, 33.668518%)" offset="0.304688"/><stop stop-opacity="1" stop-color="rgb(100%, 69.371033%, 33.607483%)" offset="0.3125"/><stop stop-opacity="1" stop-color="rgb(100%, 69.145203%, 33.544922%)" offset="0.320312"/><stop stop-opacity="1" stop-color="rgb(100%, 68.917847%, 33.483887%)" offset="0.328125"/><stop stop-opacity="1" stop-color="rgb(100%, 68.692017%, 33.421326%)" offset="0.335937"/><stop stop-opacity="1" stop-color="rgb(100%, 68.466187%, 33.360291%)" offset="0.34375"/><stop stop-opacity="1" stop-color="rgb(100%, 68.238831%, 33.297729%)" offset="0.351562"/><stop stop-opacity="1" stop-color="rgb(100%, 68.013%, 33.235168%)" offset="0.359375"/><stop stop-opacity="1" stop-color="rgb(100%, 67.78717%, 33.174133%)" offset="0.367188"/><stop stop-opacity="1" stop-color="rgb(100%, 67.56134%, 33.111572%)" offset="0.375"/><stop stop-opacity="1" stop-color="rgb(100%, 67.333984%, 33.050537%)" offset="0.382812"/><stop stop-opacity="1" stop-color="rgb(100%, 67.108154%, 32.987976%)" offset="0.390625"/><stop stop-opacity="1" stop-color="rgb(100%, 66.882324%, 32.926941%)" offset="0.398437"/><stop stop-opacity="1" stop-color="rgb(100%, 66.654968%, 32.86438%)" offset="0.40625"/><stop stop-opacity="1" stop-color="rgb(100%, 66.429138%, 32.803345%)" offset="0.414062"/><stop stop-opacity="1" stop-color="rgb(100%, 66.203308%, 32.740784%)" offset="0.421875"/><stop stop-opacity="1" stop-color="rgb(100%, 65.977478%, 32.679749%)" offset="0.429687"/><stop stop-opacity="1" stop-color="rgb(100%, 65.750122%, 32.617188%)" offset="0.4375"/><stop stop-opacity="1" stop-color="rgb(100%, 65.524292%, 32.556152%)" offset="0.445312"/><stop stop-opacity="1" stop-color="rgb(100%, 65.298462%, 32.493591%)" offset="0.453125"/><stop stop-opacity="1" stop-color="rgb(100%, 65.071106%, 32.432556%)" offset="0.460938"/><stop stop-opacity="1" stop-color="rgb(100%, 64.845276%, 32.369995%)" offset="0.46875"/><stop stop-opacity="1" stop-color="rgb(100%, 64.619446%, 32.30896%)" offset="0.476562"/><stop stop-opacity="1" stop-color="rgb(100%, 64.39209%, 32.246399%)" offset="0.484375"/><stop stop-opacity="1" stop-color="rgb(100%, 64.16626%, 32.185364%)" offset="0.492187"/><stop stop-opacity="1" stop-color="rgb(100%, 63.94043%, 32.122803%)" offset="0.5"/><stop stop-opacity="1" stop-color="rgb(100%, 63.7146%, 32.061768%)" offset="0.507812"/><stop stop-opacity="1" stop-color="rgb(100%, 63.487244%, 31.999207%)" offset="0.515625"/><stop stop-opacity="1" stop-color="rgb(100%, 63.261414%, 31.936646%)" offset="0.523437"/><stop stop-opacity="1" stop-color="rgb(100%, 63.035583%, 31.87561%)" offset="0.53125"/><stop stop-opacity="1" stop-color="rgb(100%, 62.808228%, 31.813049%)" offset="0.539062"/><stop stop-opacity="1" stop-color="rgb(100%, 62.582397%, 31.752014%)" offset="0.546875"/><stop stop-opacity="1" stop-color="rgb(100%, 62.356567%, 31.689453%)" offset="0.554688"/><stop stop-opacity="1" stop-color="rgb(100%, 62.130737%, 31.628418%)" offset="0.5625"/><stop stop-opacity="1" stop-color="rgb(100%, 61.903381%, 31.565857%)" offset="0.570312"/><stop stop-opacity="1" stop-color="rgb(100%, 61.677551%, 31.504822%)" offset="0.578125"/><stop stop-opacity="1" stop-color="rgb(100%, 61.451721%, 31.442261%)" offset="0.585938"/><stop stop-opacity="1" stop-color="rgb(100%, 61.224365%, 31.381226%)" offset="0.59375"/><stop stop-opacity="1" stop-color="rgb(100%, 60.998535%, 31.318665%)" offset="0.601562"/><stop stop-opacity="1" stop-color="rgb(100%, 60.772705%, 31.257629%)" offset="0.609375"/><stop stop-opacity="1" stop-color="rgb(100%, 60.545349%, 31.195068%)" offset="0.617188"/><stop stop-opacity="1" stop-color="rgb(100%, 60.319519%, 31.134033%)" offset="0.625"/><stop stop-opacity="1" stop-color="rgb(100%, 60.093689%, 31.071472%)" offset="0.632812"/><stop stop-opacity="1" stop-color="rgb(100%, 59.867859%, 31.010437%)" offset="0.640625"/><stop stop-opacity="1" stop-color="rgb(100%, 59.640503%, 30.947876%)" offset="0.648438"/><stop stop-opacity="1" stop-color="rgb(100%, 59.414673%, 30.886841%)" offset="0.65625"/><stop stop-opacity="1" stop-color="rgb(100%, 59.188843%, 30.82428%)" offset="0.664062"/><stop stop-opacity="1" stop-color="rgb(100%, 58.961487%, 30.763245%)" offset="0.671875"/><stop stop-opacity="1" stop-color="rgb(100%, 58.735657%, 30.700684%)" offset="0.679688"/><stop stop-opacity="1" stop-color="rgb(100%, 58.509827%, 30.639648%)" offset="0.6875"/><stop stop-opacity="1" stop-color="rgb(100%, 58.282471%, 30.577087%)" offset="0.695313"/><stop stop-opacity="1" stop-color="rgb(100%, 58.056641%, 30.514526%)" offset="0.703125"/><stop stop-opacity="1" stop-color="rgb(100%, 57.830811%, 30.453491%)" offset="0.710938"/><stop stop-opacity="1" stop-color="rgb(100%, 57.60498%, 30.39093%)" offset="0.71875"/><stop stop-opacity="1" stop-color="rgb(100%, 57.377625%, 30.329895%)" offset="0.726562"/><stop stop-opacity="1" stop-color="rgb(100%, 57.151794%, 30.267334%)" offset="0.734375"/><stop stop-opacity="1" stop-color="rgb(100%, 56.968689%, 30.21698%)" offset="0.75"/><stop stop-opacity="1" stop-color="rgb(100%, 56.898499%, 30.198669%)" offset="0.968432"/><stop stop-opacity="1" stop-color="rgb(100%, 56.898499%, 30.198669%)" offset="1"/></linearGradient><clipPath id="ceaaa53b00"><path d="M 30.816406 29.859375 L 344.039062 29.859375 L 344.039062 343.082031 L 30.816406 343.082031 Z M 30.816406 29.859375 " clip-rule="nonzero"/></clipPath><clipPath id="27ca10a58d"><path d="M 187.429688 29.859375 C 100.933594 29.859375 30.816406 99.976562 30.816406 186.472656 C 30.816406 272.964844 100.933594 343.082031 187.429688 343.082031 C 273.921875 343.082031 344.039062 272.964844 344.039062 186.472656 C 344.039062 99.976562 273.921875 29.859375 187.429688 29.859375 Z M 187.429688 29.859375 " clip-rule="nonzero"/></clipPath><clipPath id="f06603e370"><path d="M 110.261719 73 L 264.644531 73 L 264.644531 299 L 110.261719 299 Z M 110.261719 73 " clip-rule="nonzero"/></clipPath></defs><g clip-path="url(#904ec5f3d3)"><g clip-path="url(#489663450b)"><path fill="url(#6a74a0cad7)" d="M -141.617188 274.636719 L 99.257812 -142.574219 L 516.46875 98.300781 L 275.589844 515.511719 Z M -141.617188 274.636719 " fill-rule="nonzero"/></g></g><g clip-path="url(#ceaaa53b00)"><g clip-path="url(#27ca10a58d)"><path fill="#ffffff" d="M 30.816406 29.859375 L 344.039062 29.859375 L 344.039062 343.082031 L 30.816406 343.082031 Z M 30.816406 29.859375 " fill-opacity="1" fill-rule="nonzero"/></g></g><g clip-path="url(#f06603e370)"><path fill="#ff914d" d="M 209.410156 153.691406 C 201.75 151.507812 194.125 157.292969 194.125 165.265625 L 194.125 287.960938 C 194.125 294.8125 200.5 299.9375 207.171875 298.363281 C 240.066406 290.613281 264.621094 261.019531 264.621094 225.792969 C 264.621094 191.691406 241.613281 162.871094 209.410156 153.691406 Z M 180.679688 147.1875 L 180.679688 287.960938 C 180.679688 294.8125 174.300781 299.9375 167.628906 298.363281 C 134.738281 290.617188 110.183594 261.019531 110.183594 225.792969 L 110.183594 82.398438 C 110.183594 77.019531 115.09375 72.972656 120.375 74 C 154.691406 80.664062 180.679688 110.949219 180.679688 147.1875 Z M 180.679688 147.1875 " fill-opacity="1" fill-rule="nonzero"/></g></svg>