<?xml version="1.0" encoding="utf-8"?>
<!-- Generator: Adobe Illustrator 27.5.0, SVG Export Plug-In . SVG Version: 6.00 Build 0)  -->
<svg version="1.1" xmlns="http://www.w3.org/2000/svg" xmlns:xlink="http://www.w3.org/1999/xlink" x="0px" y="0px"
	 viewBox="0 0 500 500" style="enable-background:new 0 0 500 500;" xml:space="preserve">
<g id="BACKGROUND">
	<rect style="fill:#FFFFFF;" width="500" height="500"/>
</g>
<g id="OBJECTS">
	<g>
		<path style="fill:#E7EFFF;" d="M339.989,213.985c0,0,38.796-4.311,55.177,43.107c16.381,47.417-4.311,63.798,23.278,81.041
			c27.588,17.243,12.07,63.798-13.794,70.695c-25.864,6.897-308.644,0-308.644,0s-23.278-2.586-30.175-51.728
			c-6.897-49.142,37.072-46.555,40.52-73.281c3.449-26.726,19.829-54.314,83.627-60.349
			C253.776,217.434,339.989,213.985,339.989,213.985z"/>
		<g>
			<path style="fill:#559637;" d="M361.068,362.698c-1.851,8.404-0.986,16.325,1.838,21.331c4.665-3.356,8.778-10.181,10.629-18.585
				c1.851-8.404,0.986-16.325-1.838-21.331C367.032,347.469,362.919,354.294,361.068,362.698z"/>
			<path style="fill:#75BE43;" d="M368.385,368.527c-5.468,12.103-6.681,24.339-4.008,32.796
				c8.112-3.584,16.493-12.582,21.961-24.684c5.468-12.103,6.681-24.339,4.009-32.796
				C382.234,347.427,373.852,356.425,368.385,368.527z"/>
			<path style="fill:#AFE143;" d="M378.878,378.359c-10.297,8.387-16.846,18.795-18.231,27.555
				c8.859,0.415,20.376-3.893,30.672-12.281c10.297-8.387,16.846-18.795,18.231-27.555
				C400.691,365.662,389.175,369.971,378.878,378.359z"/>
		</g>
		<g>
			<path style="fill:#559637;" d="M125.332,343.7c2.646,12.012,1.409,23.334-2.627,30.488c-6.668-4.797-12.547-14.551-15.192-26.563
				c-2.646-12.012-1.409-23.334,2.627-30.488C116.808,321.934,122.686,331.688,125.332,343.7z"/>
			<path style="fill:#75BE43;" d="M114.875,352.032c7.815,17.298,9.549,34.788,5.729,46.874
				c-11.595-5.122-23.574-17.983-31.389-35.281c-7.815-17.298-9.549-34.788-5.729-46.874
				C95.081,321.873,107.059,334.734,114.875,352.032z"/>
			<path style="fill:#AFE143;" d="M99.877,366.083c14.717,11.988,24.077,26.863,26.057,39.384
				c-12.662,0.594-29.123-5.565-43.84-17.553c-14.717-11.988-24.077-26.863-26.057-39.384
				C68.699,347.937,85.16,354.095,99.877,366.083z"/>
		</g>
		<ellipse style="fill:#75BE43;" cx="246.613" cy="410.32" rx="184.331" ry="11.901"/>
		<g>
			<g>
				<g>
					<g>
						<rect x="157.809" y="146.588" style="fill:#E7EFFF;" width="10.867" height="31.376"/>
						<rect x="157.809" y="146.588" style="fill:#A1CAF4;" width="10.867" height="26.877"/>
					</g>
					<g>
						<rect x="314.64" y="146.588" style="fill:#E7EFFF;" width="10.868" height="31.376"/>
						<rect x="314.64" y="146.588" style="fill:#A1CAF4;" width="10.868" height="21.057"/>
					</g>
				</g>
			</g>
			<g>
				<rect x="116.66" y="260.03" style="fill:#A1CAF4;" width="249.996" height="128.357"/>
				<g>
					<path style="fill:#FFC21A;" d="M366.656,228.078H116.66v-44.027c0-4.234,3.432-7.666,7.666-7.666H358.99
						c4.234,0,7.666,3.432,7.666,7.666V228.078z"/>
					<g>
						<g>
							<g>
								<path style="fill:#FF3C59;" d="M132.285,260.03h-31.25v-64.835c0-6.21,5.034-11.244,11.244-11.244h20.006V260.03z"/>
								<path style="fill:#FF3C59;" d="M382.281,260.03h-31.25v-76.079h20.005c6.21,0,11.244,5.034,11.244,11.244V260.03z"/>
								<rect x="132.285" y="183.951" style="fill:#E7EFFF;" width="31.249" height="76.079"/>
							</g>
							<g>
								<rect x="163.535" y="183.951" style="fill:#FF3C59;" width="31.249" height="76.079"/>
								<rect x="194.784" y="183.951" style="fill:#E7EFFF;" width="31.249" height="76.079"/>
							</g>
							<g>
								<rect x="226.034" y="183.951" style="fill:#FF3C59;" width="31.249" height="76.079"/>
								<rect x="257.283" y="183.951" style="fill:#E7EFFF;" width="31.249" height="76.079"/>
							</g>
							<g>
								<rect x="288.533" y="183.951" style="fill:#FF3C59;" width="31.249" height="76.079"/>
								<rect x="319.782" y="183.951" style="fill:#E7EFFF;" width="31.249" height="76.079"/>
							</g>
						</g>
						<g>
							<g>
								<path style="fill:#E42D4F;" d="M116.66,279.013L116.66,279.013c-8.629,0-15.625-6.995-15.625-15.625v-5.111h31.25v5.111
									C132.285,272.018,125.29,279.013,116.66,279.013z"/>
								<path style="fill:#E42D4F;" d="M366.656,279.013L366.656,279.013c-8.629,0-15.625-6.995-15.625-15.625v-5.111h31.25v5.111
									C382.281,272.018,375.286,279.013,366.656,279.013z"/>
								<path style="fill:#D1E1F0;" d="M147.91,279.013L147.91,279.013c-8.629,0-15.625-6.995-15.625-15.625v-5.111h31.249v5.111
									C163.535,272.018,156.539,279.013,147.91,279.013z"/>
							</g>
							<g>
								<path style="fill:#E42D4F;" d="M179.159,279.013L179.159,279.013c-8.629,0-15.625-6.995-15.625-15.625v-5.111h31.249v5.111
									C194.784,272.018,187.789,279.013,179.159,279.013z"/>
								<path style="fill:#D1E1F0;" d="M210.409,279.013L210.409,279.013c-8.629,0-15.625-6.995-15.625-15.625v-5.111h31.25v5.111
									C226.034,272.018,219.038,279.013,210.409,279.013z"/>
							</g>
							<g>
								<path style="fill:#E42D4F;" d="M241.658,279.013L241.658,279.013c-8.629,0-15.625-6.995-15.625-15.625v-5.111h31.249v5.111
									C257.283,272.018,250.288,279.013,241.658,279.013z"/>
								<path style="fill:#D1E1F0;" d="M272.908,279.013L272.908,279.013c-8.629,0-15.625-6.995-15.625-15.625v-5.111h31.25v5.111
									C288.533,272.018,281.537,279.013,272.908,279.013z"/>
							</g>
							<g>
								<path style="fill:#E42D4F;" d="M304.157,279.013L304.157,279.013c-8.629,0-15.625-6.995-15.625-15.625v-5.111h31.249v5.111
									C319.782,272.018,312.787,279.013,304.157,279.013z"/>
								<path style="fill:#D1E1F0;" d="M335.407,279.013L335.407,279.013c-8.629,0-15.625-6.995-15.625-15.625v-5.111h31.249v5.111
									C351.031,272.018,344.036,279.013,335.407,279.013z"/>
							</g>
						</g>
					</g>
					<g>
						<g>
							<g>
								<path style="fill:#E7EFFF;" d="M142.832,378.7c-3.693,0-6.698-3.005-6.698-6.698v-77.918c0-3.694,3.004-6.699,6.698-6.699
									h47.298c3.693,0,6.698,3.005,6.698,6.699v77.918c0,3.692-3.005,6.698-6.698,6.698H142.832z"/>
								<path style="fill:#3B9BF4;" d="M190.13,375.419h-47.298c-1.887,0-3.417-1.53-3.417-3.418v-77.918
									c0-1.887,1.53-3.418,3.417-3.418h47.298c1.887,0,3.417,1.53,3.417,3.418v77.918
									C193.547,373.889,192.017,375.419,190.13,375.419z"/>
							</g>
							<g>
								<path style="fill:#3BB8FF;" d="M161.877,371.045h-14.85c-1.713,0-3.101-1.388-3.101-3.101v-70.076
									c0-1.712,1.388-3.101,3.101-3.101h14.85c1.712,0,3.101,1.388,3.101,3.101v70.076
									C164.978,369.657,163.589,371.045,161.877,371.045z"/>
								<path style="fill:#3BB8FF;" d="M185.936,371.045h-14.85c-1.713,0-3.101-1.388-3.101-3.101v-70.076
									c0-1.712,1.388-3.101,3.101-3.101h14.85c1.712,0,3.101,1.388,3.101,3.101v70.076
									C189.037,369.657,187.648,371.045,185.936,371.045z"/>
							</g>
						</g>
					</g>
					<g>
						<path style="fill:#E7EFFF;" d="M230.561,358.022c-4.851,0-8.798-3.947-8.798-8.799v-52.611c0-4.85,3.947-8.797,8.798-8.797
							h104.261c4.85,0,8.797,3.947,8.797,8.797v52.611c0,4.852-3.947,8.799-8.797,8.799H230.561z"/>
						<path style="fill:#3B9BF4;" d="M334.822,354.871h-104.26c-3.118,0-5.646-2.528-5.646-5.646v-52.612
							c0-3.118,2.528-5.646,5.646-5.646h104.26c3.118,0,5.646,2.528,5.646,5.646v52.612
							C340.468,352.343,337.94,354.871,334.822,354.871z"/>
					</g>
				</g>
			</g>
			<rect x="109.698" y="388.387" style="fill:#E7EFFF;" width="265.182" height="8.616"/>
			<rect x="102.297" y="397.002" style="fill:#D1E1F0;" width="279.984" height="11.682"/>
		</g>
		<rect x="221.763" y="358.022" style="fill:#D1E1F0;" width="123.931" height="3.858"/>
		<path style="fill:#3B9BF4;" d="M334.822,354.871h-104.26c-3.118,0-5.646-2.528-5.646-5.646v-52.612
			c0-3.118,2.528-5.646,5.646-5.646h104.26c3.118,0,5.646,2.528,5.646,5.646v52.612C340.468,352.343,337.94,354.871,334.822,354.871
			z"/>
		<g>
			<polygon style="fill:#3BB8FF;" points="322.334,290.966 314.522,290.966 279.074,354.871 286.886,354.871 			"/>
			<polygon style="fill:#3BB8FF;" points="255.637,354.871 271.262,354.871 306.709,290.966 291.085,290.966 			"/>
		</g>
		<path style="fill:#75BE43;" d="M343.448,405.755c-2.462,0-4.624,1.273-5.873,3.194c-1.536-4.021-5.419-6.881-9.98-6.881
			c-1.578,0-3.072,0.351-4.42,0.965c-1.402-6.042-6.807-10.55-13.276-10.55c-6.173,0-11.383,4.104-13.065,9.73
			c-0.549-0.087-1.108-0.145-1.682-0.145c-5.905,0-10.691,4.787-10.691,10.691c0,0.207,0.02,0.41,0.031,0.614h13.867h7.453h11.122
			h4.504h15.066h1.75h12.135c0.018-0.206,0.062-0.404,0.062-0.614C350.453,408.891,347.317,405.755,343.448,405.755z"/>
		<path style="fill:#75BE43;" d="M174.283,407.267c-1.396,0-2.616,0.728-3.319,1.82c-0.863-2.275-3.047-3.9-5.625-3.9
			c-0.891,0-1.731,0.205-2.492,0.552c-0.788-3.413-3.84-5.961-7.493-5.961c-3.488,0-6.43,2.322-7.375,5.504
			c-0.31-0.049-0.622-0.095-0.945-0.095c-3.332,0-6.033,2.701-6.033,6.033c0,0.117,0.011,0.231,0.018,0.347h7.824h4.205h6.276h2.541
			h8.501h0.988h6.847c0.01-0.116,0.035-0.228,0.035-0.347C178.235,409.036,176.465,407.267,174.283,407.267z"/>
		<g>
			<path style="fill:#533dea;" d="M136.005,103.616l203.857-14.832c6.484-0.475,11.808,5.053,11.09,11.515l-5.905,52.41
				c-0.57,5.131-4.819,9.066-9.978,9.241l-190.247,6.471c-5.167,0.176-9.678-3.472-10.586-8.562l-7.704-44.049
				C125.447,109.74,129.855,104.066,136.005,103.616z"/>
			<g>
				
					<text transform="matrix(0.9984 -0.0511 -0.1587 0.9873 158.2872 157.5095)" style="fill:#FFFFFF; font-family:'Norwester-Regular'; font-size:43.4536px;">COME IN</text>
			</g>
		</g>
		<g>
			<text transform="matrix(1 0 0 1 244.8574 320.0866)"><tspan x="0" y="0" style="fill:#366DD1; font-family:'Bungee-Regular'; font-size:23.8096px;">WE’RE </tspan><tspan x="7.917" y="25.985" style="fill:#366DD1; font-family:'Bungee-Regular'; font-size:23.8096px;">OPEN</tspan></text>
			<text transform="matrix(1 0 0 1 241.9487 320.0866)"><tspan x="0" y="0" style="fill:#FFFFFF; font-family:'Bungee-Regular'; font-size:23.8096px;">WE’RE </tspan><tspan x="7.917" y="25.985" style="fill:#FFFFFF; font-family:'Bungee-Regular'; font-size:23.8096px;">OPEN</tspan></text>
		</g>
		<path style="fill:#E7EFFF;" d="M171.011,340.934L171.011,340.934c-0.714,0-1.293-0.579-1.293-1.293v-14.01
			c0-0.714,0.579-1.293,1.293-1.293l0,0c0.714,0,1.293,0.579,1.293,1.293v14.01C172.304,340.355,171.725,340.934,171.011,340.934z"
			/>
		<path style="fill:#E7EFFF;" d="M161.312,340.934L161.312,340.934c-0.714,0-1.293-0.579-1.293-1.293v-14.01
			c0-0.714,0.579-1.293,1.293-1.293h0c0.714,0,1.293,0.579,1.293,1.293v14.01C162.605,340.355,162.026,340.934,161.312,340.934z"/>
		<path style="fill:#CF3B88;" d="M339.862,88.784l-30.134,2.192c-1.214,3.394-1.88,7.049-1.88,10.86
			c0,17.803,14.432,32.236,32.236,32.236c2.46,0,4.852-0.285,7.154-0.807l3.714-32.967C351.67,93.837,346.346,88.309,339.862,88.784
			z"/>
		<g>
			
				<ellipse transform="matrix(0.5303 -0.8478 0.8478 0.5303 73.4049 336.1647)" style="fill:#FFC21A;" cx="340.083" cy="101.836" rx="26.367" ry="26.367"/>
			
				<ellipse transform="matrix(0.7071 -0.7071 0.7071 0.7071 27.5991 270.3024)" style="fill:#FFC21A;stroke:#FF981A;stroke-miterlimit:10;" cx="340.083" cy="101.836" rx="19.846" ry="19.846"/>
			<path style="fill:#FFEC41;" d="M355.075,80.16l-36.668,36.669c2.121,3.06,4.879,5.632,8.073,7.563l36.158-36.159
				C360.708,85.039,358.136,82.28,355.075,80.16z"/>
			
				<ellipse transform="matrix(0.7071 -0.7071 0.7071 0.7071 27.5991 270.3024)" style="fill:none;stroke:#FF981A;stroke-miterlimit:10;" cx="340.083" cy="101.836" rx="19.846" ry="19.846"/>
		</g>
		<circle style="fill:#FFC21A;" cx="357.879" cy="132.298" r="3.233"/>
		<g>
			
				<text transform="matrix(0.9981 -0.0617 0.0617 0.9981 218.5963 114.652)" style="fill:#FFC21A; font-family:'Montserrat-BoldItalic'; font-size:15.9813px;">HEY</text>
		</g>
		<g>
			<g>
				<path style="fill:#CF3B88;" d="M145.865,123.786c-0.167,2.405-2.252,4.218-4.657,4.051c-2.405-0.167-4.218-2.252-4.051-4.657
					c0.167-2.405,2.252-4.218,4.657-4.051C144.218,119.296,146.032,121.381,145.865,123.786z"/>
				<path style="fill:#FFC21A;" d="M145.065,121.299c-0.167,2.405-2.252,4.218-4.657,4.051c-2.405-0.167-4.218-2.252-4.051-4.657
					c0.167-2.405,2.252-4.219,4.657-4.051C143.419,116.81,145.232,118.895,145.065,121.299z"/>
				<path style="fill:#FFF0C6;" d="M143.773,120.075c-0.065,0.935-0.876,1.64-1.811,1.576c-0.935-0.065-1.641-0.876-1.576-1.811
					c0.065-0.935,0.876-1.64,1.811-1.576C143.133,118.329,143.838,119.14,143.773,120.075z"/>
			</g>
			<g>
				<path style="fill:#CF3B88;" d="M148.313,139.836c-0.167,2.405-2.252,4.218-4.657,4.051c-2.405-0.167-4.219-2.252-4.051-4.657
					c0.167-2.405,2.252-4.218,4.657-4.051S148.48,137.431,148.313,139.836z"/>
				<path style="fill:#FFC21A;" d="M147.514,137.35c-0.167,2.405-2.252,4.218-4.657,4.051c-2.405-0.167-4.219-2.252-4.051-4.657
					c0.167-2.405,2.252-4.219,4.657-4.051C145.867,132.86,147.681,134.945,147.514,137.35z"/>
				<path style="fill:#FFF0C6;" d="M146.221,136.126c-0.065,0.935-0.876,1.641-1.811,1.576c-0.935-0.065-1.641-0.876-1.575-1.811
					c0.065-0.935,0.876-1.641,1.811-1.576C145.581,134.38,146.286,135.19,146.221,136.126z"/>
			</g>
			<g>
				<path style="fill:#CF3B88;" d="M151.189,156.726c-0.167,2.405-2.252,4.218-4.657,4.051c-2.405-0.167-4.218-2.252-4.051-4.657
					c0.167-2.405,2.252-4.218,4.657-4.051C149.543,152.236,151.356,154.322,151.189,156.726z"/>
				<path style="fill:#FFC21A;" d="M150.39,154.24c-0.167,2.405-2.252,4.219-4.657,4.051c-2.405-0.167-4.218-2.252-4.051-4.657
					c0.167-2.405,2.252-4.218,4.657-4.051C148.743,149.75,150.557,151.835,150.39,154.24z"/>
				<path style="fill:#FFF0C6;" d="M149.098,153.016c-0.065,0.935-0.876,1.641-1.811,1.575c-0.935-0.065-1.641-0.876-1.576-1.811
					c0.065-0.935,0.876-1.641,1.811-1.575C148.457,151.27,149.163,152.081,149.098,153.016z"/>
			</g>
		</g>
		<g>
			<path style="fill:#81B7F4;" d="M255.609,374.66h-11.764c-0.289,0-0.523-0.234-0.523-0.523v-3.921
				c0-0.289,0.234-0.523,0.523-0.523h11.764c0.289,0,0.523,0.234,0.523,0.523v3.921C256.132,374.426,255.898,374.66,255.609,374.66z
				"/>
			<path style="fill:#81B7F4;" d="M269.203,374.66h-11.764c-0.289,0-0.523-0.234-0.523-0.523v-3.921
				c0-0.289,0.234-0.523,0.523-0.523h11.764c0.289,0,0.523,0.234,0.523,0.523v3.921C269.725,374.426,269.491,374.66,269.203,374.66z
				"/>
			<path style="fill:#81B7F4;" d="M262.537,380.499h-11.764c-0.289,0-0.523-0.234-0.523-0.523v-3.921
				c0-0.289,0.234-0.523,0.523-0.523h11.764c0.289,0,0.523,0.234,0.523,0.523v3.921
				C263.059,380.265,262.825,380.499,262.537,380.499z"/>
			<path style="fill:#81B7F4;" d="M341.191,374.66h-11.764c-0.289,0-0.523-0.234-0.523-0.523v-3.921
				c0-0.289,0.234-0.523,0.523-0.523h11.764c0.289,0,0.523,0.234,0.523,0.523v3.921C341.714,374.426,341.479,374.66,341.191,374.66z
				"/>
			<path style="fill:#7AA2F4;" d="M334.525,380.499h-11.764c-0.289,0-0.523-0.234-0.523-0.523v-3.921
				c0-0.289,0.234-0.523,0.523-0.523h11.764c0.289,0,0.523,0.234,0.523,0.523v3.921
				C335.048,380.265,334.813,380.499,334.525,380.499z"/>
		</g>
		<g>
			<path style="fill:#A1CAF4;" d="M401.74,294.379h-4.311c-2.559,0-4.634-2.075-4.634-4.634v-4.311c0-2.559,2.075-4.634,4.634-4.634
				h4.311c2.559,0,4.634,2.075,4.634,4.634v4.311C406.374,292.304,404.299,294.379,401.74,294.379z"/>
			<path style="fill:#A1CAF4;" d="M434.393,378.114h-4.311c-2.559,0-4.634-2.075-4.634-4.634v-4.311
				c0-2.559,2.075-4.634,4.634-4.634h4.311c2.559,0,4.634,2.075,4.634,4.634v4.311C439.027,376.039,436.952,378.114,434.393,378.114
				z"/>
			<path style="fill:#A1CAF4;" d="M91.695,290.823h-4.311c-2.559,0-4.634-2.075-4.634-4.634v-4.311c0-2.559,2.075-4.634,4.634-4.634
				h4.311c2.559,0,4.634,2.075,4.634,4.634v4.311C96.329,288.748,94.254,290.823,91.695,290.823z"/>
			<path style="fill:#A1CAF4;" d="M394.35,315.07h-2.463c-1.462,0-2.648-1.185-2.648-2.648v-2.463c0-1.462,1.186-2.648,2.648-2.648
				h2.463c1.462,0,2.648,1.186,2.648,2.648v2.463C396.998,313.885,395.812,315.07,394.35,315.07z"/>
			<path style="fill:#A1CAF4;" d="M95.944,305.371h-2.463c-1.462,0-2.648-1.185-2.648-2.648v-2.463c0-1.462,1.186-2.648,2.648-2.648
				h2.463c1.463,0,2.648,1.186,2.648,2.648v2.463C98.592,304.186,97.406,305.371,95.944,305.371z"/>
			<path style="fill:#A1CAF4;" d="M385.682,306.772h-2.586c-0.774,0-1.401-0.627-1.401-1.401v-2.586
				c0-0.774,0.627-1.401,1.401-1.401h2.586c0.774,0,1.401,0.627,1.401,1.401v2.586C387.083,306.145,386.456,306.772,385.682,306.772
				z"/>
		</g>
		<g>
			<g>
				<circle style="fill:#75BE43;" cx="77.254" cy="360.332" r="2.586"/>
				<circle style="fill:#FEFFB1;" cx="64.107" cy="359.039" r="1.94"/>
				<circle style="fill:#FEFFB1;" cx="94.281" cy="372.833" r="1.293"/>
				<circle style="fill:#75BE43;" cx="95.359" cy="388.136" r="1.293"/>
				<circle style="fill:#75BE43;" cx="104.627" cy="377.575" r="1.94"/>
				<circle style="fill:#75BE43;" cx="84.69" cy="372.941" r="1.293"/>
			</g>
			<g>
				<circle style="fill:#75BE43;" cx="394.257" cy="375.695" r="1.551"/>
				<path style="fill:#FEFFB1;" d="M400.976,374.92c0,0.642,0.521,1.163,1.163,1.163c0.642,0,1.163-0.521,1.163-1.163
					s-0.521-1.163-1.163-1.163C401.497,373.757,400.976,374.278,400.976,374.92z"/>
				<circle style="fill:#FEFFB1;" cx="384.049" cy="383.19" r="0.775"/>
				<circle style="fill:#75BE43;" cx="383.403" cy="392.364" r="0.775"/>
				<path style="fill:#75BE43;" d="M376.684,386.032c0,0.642,0.521,1.163,1.163,1.163c0.642,0,1.163-0.521,1.163-1.163
					s-0.521-1.163-1.163-1.163C377.205,384.87,376.684,385.39,376.684,386.032z"/>
				<circle style="fill:#75BE43;" cx="389.799" cy="383.254" r="0.775"/>
			</g>
			<g>
				<path style="fill:#559637;" d="M101.96,342.207c-0.912,1.1-2.542,1.252-3.642,0.341c-1.1-0.912-1.252-2.542-0.34-3.642
					c0.912-1.1,2.542-1.252,3.642-0.341C102.719,339.477,102.871,341.107,101.96,342.207z"/>
				<path style="fill:#559637;" d="M92.165,332.408c-0.684,0.825-1.907,0.939-2.731,0.255c-0.825-0.684-0.939-1.907-0.255-2.731
					c0.684-0.825,1.907-0.939,2.731-0.255C92.735,330.36,92.849,331.583,92.165,332.408z"/>
				<path style="fill:#559637;" d="M106.094,361.873c-0.456,0.55-1.271,0.626-1.821,0.17c-0.55-0.456-0.626-1.271-0.17-1.821
					c0.456-0.55,1.271-0.626,1.821-0.17C106.474,360.508,106.55,361.323,106.094,361.873z"/>
				<path style="fill:#AFE143;" d="M110.741,353.56c-0.456,0.55-1.271,0.626-1.821,0.17c-0.55-0.456-0.626-1.271-0.17-1.821
					c0.456-0.55,1.271-0.626,1.821-0.17C111.121,352.195,111.197,353.01,110.741,353.56z"/>
				<path style="fill:#AFE143;" d="M114.279,371.084c-0.684,0.825-1.907,0.939-2.731,0.255c-0.825-0.684-0.939-1.907-0.255-2.731
					c0.684-0.825,1.907-0.939,2.731-0.255C114.848,369.036,114.962,370.259,114.279,371.084z"/>
				<path style="fill:#AFE143;" d="M93.792,350.662c-0.456,0.55-1.271,0.626-1.821,0.17c-0.55-0.456-0.626-1.271-0.17-1.821
					c0.456-0.55,1.271-0.626,1.821-0.17C94.172,349.297,94.248,350.112,93.792,350.662z"/>
			</g>
			<g>
				<path style="fill:#559637;" d="M378.938,361.34c0.646,0.779,1.8,0.887,2.579,0.241c0.779-0.646,0.887-1.8,0.241-2.579
					c-0.646-0.779-1.8-0.887-2.579-0.241C378.4,359.406,378.292,360.561,378.938,361.34z"/>
				<path style="fill:#559637;" d="M385.874,354.4c0.484,0.584,1.35,0.665,1.934,0.181c0.584-0.484,0.665-1.35,0.181-1.934
					c-0.484-0.584-1.35-0.665-1.934-0.181C385.471,352.95,385.39,353.816,385.874,354.4z"/>
				<path style="fill:#559637;" d="M376.01,375.267c0.323,0.389,0.9,0.443,1.29,0.12c0.389-0.323,0.443-0.9,0.121-1.29
					c-0.323-0.389-0.9-0.443-1.29-0.12C375.741,374.3,375.687,374.877,376.01,375.267z"/>
				<path style="fill:#AFE143;" d="M372.719,369.38c0.323,0.389,0.9,0.443,1.29,0.121c0.389-0.323,0.443-0.9,0.12-1.29
					c-0.323-0.389-0.9-0.443-1.29-0.121C372.45,368.413,372.396,368.99,372.719,369.38z"/>
				<path style="fill:#AFE143;" d="M370.214,381.79c0.484,0.584,1.35,0.665,1.934,0.181c0.584-0.484,0.665-1.35,0.181-1.934
					c-0.484-0.584-1.35-0.665-1.934-0.181C369.81,380.34,369.729,381.206,370.214,381.79z"/>
				<path style="fill:#AFE143;" d="M384.722,367.327c0.323,0.389,0.9,0.443,1.29,0.121c0.389-0.323,0.443-0.9,0.121-1.29
					c-0.323-0.389-0.9-0.443-1.29-0.121C384.453,366.36,384.399,366.938,384.722,367.327z"/>
			</g>
		</g>
	</g>
</g>
</svg>
